<?xml version="1.0" encoding="UTF-8"?>
<svg version="1.1" xmlns="http://www.w3.org/2000/svg" width="593" height="274">
<path d="M0 0 C195.69 0 391.38 0 593 0 C593 90.42 593 180.84 593 274 C397.31 274 201.62 274 0 274 C0 183.58 0 93.16 0 0 Z " fill="#FEFEFE" transform="translate(0,0)"/>
<path d="M0 0 C3.11282876 1.33195525 4.56159577 2.56159577 7 5 C7 5.66 7 6.32 7 7 C8.19625 7.0825 9.3925 7.165 10.625 7.25 C14.93835697 7.79966673 17.62460599 9.17408873 21 12 C23.85689351 15.87432492 24.34488414 18.53851451 24.1875 23.3125 C24.14689453 24.91544922 24.14689453 24.91544922 24.10546875 26.55078125 C24.07066406 27.35902344 24.03585937 28.16726562 24 29 C25.051875 29.0825 26.10375 29.165 27.1875 29.25 C31.22213669 29.73608992 34.92832718 30.82682016 38.80078125 32.046875 C39.96391846 32.41135742 41.12705566 32.77583984 42.32543945 33.15136719 C43.20804443 33.43141602 44.09064941 33.71146484 45 34 C45.04629742 44.63964145 45.081856 55.27925901 45.10362434 65.9189806 C45.11407093 70.85919052 45.1282461 75.79933164 45.15087891 80.73950195 C45.17257607 85.50515611 45.18456203 90.27074398 45.18975449 95.03644371 C45.19345587 96.85655448 45.20068355 98.67666153 45.21146011 100.49674416 C45.22593351 103.04193649 45.22797969 105.58685336 45.22705078 108.13208008 C45.23424133 108.88805481 45.24143188 109.64402954 45.24884033 110.4229126 C45.23399918 114.16965187 45.13382972 115.79925542 43 119 C40.66319668 119.76586844 38.45471395 120.35490373 36.0625 120.875 C34.5920958 121.21724065 33.12205693 121.56105387 31.65234375 121.90625 C30.88390137 122.08414063 30.11545898 122.26203125 29.32373047 122.4453125 C26.33427097 123.15891326 23.37081675 123.95546518 20.40429688 124.75830078 C10.90010995 127.32980637 1.3346664 129.58058957 -8.26782227 131.75366211 C-13.50795247 132.94409015 -18.73063792 134.16760579 -23.9296875 135.52734375 C-24.84242432 135.76517578 -25.75516113 136.00300781 -26.69555664 136.24804688 C-28.38993729 136.69444401 -30.08203989 137.14961824 -31.77124023 137.61523438 C-39.56694329 139.66581237 -44.06960508 137.7015677 -51.0625 134.125 C-51.76955078 133.77308594 -52.47660156 133.42117187 -53.20507812 133.05859375 C-55.1567206 132.07269361 -57.07694804 131.04015481 -59 130 C-59.82371094 129.60554687 -60.64742187 129.21109375 -61.49609375 128.8046875 C-64.04682832 125.74380601 -63.19885846 121.80551983 -63 118 C-62.61188684 113.75093184 -62.08372485 109.52451449 -61.5390625 105.29296875 C-61.38843353 104.09118484 -61.23780457 102.88940094 -61.08261108 101.65119934 C-60.76407267 99.11861664 -60.44286589 96.58636828 -60.11914062 94.05444336 C-59.6279865 90.21087112 -59.14531131 86.3663081 -58.6640625 82.52148438 C-58.35206253 80.04941601 -58.03957825 77.5774087 -57.7265625 75.10546875 C-57.58376862 73.97070602 -57.44097473 72.8359433 -57.29385376 71.66679382 C-56.47596577 65.29163904 -55.53338306 58.9541681 -54.43859863 52.62049866 C-53.80634142 48.84294655 -53.32649122 45.05265318 -52.875 41.25 C-52.58625 38.8575 -52.2975 36.465 -52 34 C-44.41 33.67 -36.82 33.34 -29 33 C-28.790715 27.01779961 -28.790715 27.01779961 -28.61206055 21.03466797 C-28.32952114 14.57957049 -26.98623495 10.3083271 -22.6875 5.3125 C-15.77083618 -0.63904794 -8.82361854 -1.12467907 0 0 Z " fill="#FDFCFD" transform="translate(264,66)"/>
<path d="M0 0 C47.65517241 0 47.65517241 0 56.875 5.8125 C64.14576241 13.29710837 65.3145265 22.44059639 65.265625 32.43359375 C65.26753845 33.31096695 65.2694519 34.18834015 65.27142334 35.09230042 C65.27277657 36.93694345 65.26914079 38.78159629 65.26074219 40.6262207 C65.25004331 43.42616509 65.26066031 46.22546608 65.2734375 49.02539062 C65.2721155 50.8281264 65.26955227 52.63086177 65.265625 54.43359375 C65.26967346 55.2588707 65.27372192 56.08414764 65.27789307 56.93443298 C65.23360075 62.51530049 64.41528161 67.60402452 63 73 C62.34 73 61.68 73 61 73 C60.6596875 74.0828125 60.6596875 74.0828125 60.3125 75.1875 C57.4525908 81.31587687 53.04086599 83.82852961 46.97753906 86.17749023 C41.49426426 87.69217971 36.01830805 87.4122837 30.375 87.25 C26.29125 87.1675 22.2075 87.085 18 87 C18 101.85 18 116.7 18 132 C12.06 132 6.12 132 0 132 C0 88.44 0 44.88 0 0 Z " fill="#541E8D" transform="translate(118,69)"/>
<path d="M0 0 C7.59822539 5.44458825 11.11750784 10.60784759 13.453125 19.7578125 C13.88751612 24.17401116 13.83812424 28.51370299 13.703125 32.9453125 C13.68507813 34.08806641 13.66703125 35.23082031 13.6484375 36.40820312 C13.60185048 39.19177778 13.53013067 41.97491324 13.453125 44.7578125 C7.183125 44.7578125 0.913125 44.7578125 -5.546875 44.7578125 C-5.57265625 43.01113281 -5.5984375 41.26445313 -5.625 39.46484375 C-5.6812825 37.16664173 -5.7386298 34.86846561 -5.796875 32.5703125 C-5.81105469 31.41982422 -5.82523438 30.26933594 -5.83984375 29.08398438 C-5.87207031 27.97216797 -5.90429688 26.86035156 -5.9375 25.71484375 C-5.95844727 24.69366455 -5.97939453 23.67248535 -6.00097656 22.62036133 C-6.68377567 19.03994113 -8.05143379 17.37315053 -10.546875 14.7578125 C-15.0044325 11.7861075 -19.32100682 12.00487001 -24.546875 12.7578125 C-27.72256042 14.41015172 -29.92383985 16.51174221 -31.546875 19.7578125 C-31.87186877 24.20981572 -31.8713747 28.67042217 -31.921875 33.1328125 C-31.95925781 34.37804687 -31.99664062 35.62328125 -32.03515625 36.90625 C-32.04675781 38.1025 -32.05835937 39.29875 -32.0703125 40.53125 C-32.09013184 41.62872559 -32.10995117 42.72620117 -32.13037109 43.85693359 C-31.78902696 46.95212038 -31.78902696 46.95212038 -29.19165039 49.08325195 C-26.32447759 50.89862519 -23.89064376 51.7303408 -20.609375 52.5703125 C-9.246021 55.87765336 4.07135261 61.12194517 10.62890625 71.64453125 C14.160336 79.36011947 13.70378364 87.65444759 13.765625 95.9453125 C13.79462891 97.22212891 13.82363281 98.49894531 13.85351562 99.81445312 C13.92512957 110.52900175 12.05821012 119.02325624 4.58203125 127 C-4.32329373 134.35302063 -15.40660031 135.69567408 -26.546875 134.7578125 C-32.07427749 133.37424955 -37.21977622 131.5652597 -41.546875 127.7578125 C-41.546875 127.0978125 -41.546875 126.4378125 -41.546875 125.7578125 C-42.15144531 125.52707031 -42.75601563 125.29632813 -43.37890625 125.05859375 C-46.14288704 123.40020527 -46.86015601 121.83680798 -48.234375 118.9453125 C-48.65074219 118.09324219 -49.06710938 117.24117188 -49.49609375 116.36328125 C-51.29269732 111.90850586 -51.67008487 107.7980576 -51.64453125 103.01953125 C-51.64130859 101.95283203 -51.63808594 100.88613281 -51.63476562 99.78710938 C-51.62638672 98.68431641 -51.61800781 97.58152344 -51.609375 96.4453125 C-51.60486328 95.32318359 -51.60035156 94.20105469 -51.59570312 93.04492188 C-51.58394826 90.28252914 -51.56601369 87.52016394 -51.546875 84.7578125 C-45.276875 84.7578125 -39.006875 84.7578125 -32.546875 84.7578125 C-32.50949219 86.42070312 -32.47210938 88.08359375 -32.43359375 89.796875 C-32.36792135 91.99220958 -32.30147445 94.18752108 -32.234375 96.3828125 C-32.21181641 97.47722656 -32.18925781 98.57164062 -32.16601562 99.69921875 C-31.94541209 107.66417047 -31.94541209 107.66417047 -28.546875 114.7578125 C-23.11464086 118.05975874 -19.52694867 118.10815172 -13.546875 116.7578125 C-9.72444185 115.01278867 -8.05590968 113.64770421 -6.546875 109.7578125 C-6.06563614 105.0823181 -6.13052522 100.39301205 -6.109375 95.6953125 C-6.07650391 94.40302734 -6.04363281 93.11074219 -6.00976562 91.77929688 C-6.00267578 90.54373047 -5.99558594 89.30816406 -5.98828125 88.03515625 C-5.97482666 86.90327881 -5.96137207 85.77140137 -5.94750977 84.60522461 C-6.26652488 81.59880893 -6.26652488 81.59880893 -8.75878906 79.9777832 C-11.39321849 78.82504731 -13.97233454 77.82377212 -16.71484375 76.9609375 C-42.4125296 68.62378813 -42.4125296 68.62378813 -48.609375 57.84765625 C-50.84639556 52.86096457 -51.8016015 48.58120105 -51.8125 43.109375 C-51.81507812 41.85640625 -51.81765625 40.6034375 -51.8203125 39.3125 C-51.81257813 38.01570313 -51.80484375 36.71890625 -51.796875 35.3828125 C-51.80460937 34.09375 -51.81234375 32.8046875 -51.8203125 31.4765625 C-51.79797204 20.59675904 -50.97332051 13.03910066 -43.546875 4.7578125 C-32.02553632 -6.50749643 -13.87867827 -8.33496041 0 0 Z " fill="#551F8E" transform="translate(85.546875,70.2421875)"/>
<path d="M0 0 C6.27 0 12.54 0 19 0 C21.60200137 6.22621756 23.79522376 12.42324033 25.72265625 18.88671875 C27.73844503 25.50953542 30.02671586 32.04987341 32.27050781 38.59814453 C32.60791992 39.59571777 32.94533203 40.59329102 33.29296875 41.62109375 C33.74965942 42.95805298 33.74965942 42.95805298 34.21557617 44.32202148 C35.05798966 47.19797343 35.56261259 50.03765731 36 53 C36.66 53 37.32 53 38 53 C38.24234375 51.783125 38.4846875 50.56625 38.734375 49.3125 C40.12611421 43.06188178 42.19321109 37.0577828 44.25 31 C44.64823975 29.81623779 45.04647949 28.63247559 45.45678711 27.4128418 C48.55145884 18.24360581 51.73988447 9.11160495 55 0 C61.27 0 67.54 0 74 0 C72.71672775 5.77472513 71.46874731 10.9572617 69.6015625 16.48828125 C69.37035202 17.17517532 69.13914154 17.8620694 68.90092468 18.56977844 C68.4037904 20.04610567 67.90500329 21.5218772 67.4046936 22.99713135 C66.60209024 25.38053256 65.81735587 27.76925919 65.03588867 30.15966797 C62.68977924 37.29409751 60.32686165 44.37762097 57.42253113 51.30718994 C46.49143684 77.3986768 46.43885752 103.09027605 46.95959473 130.96302795 C46.97784302 132.00929855 46.99609131 133.05556915 47.01489258 134.13354492 C47.03554276 135.05310471 47.05619293 135.97266449 47.07746887 136.92008972 C47 139 47 139 46 140 C44.66956375 140.0983721 43.33406656 140.13078592 42 140.1328125 C41.195625 140.13410156 40.39125 140.13539063 39.5625 140.13671875 C38.716875 140.13285156 37.87125 140.12898437 37 140.125 C35.7315625 140.13080078 35.7315625 140.13080078 34.4375 140.13671875 C33.633125 140.13542969 32.82875 140.13414062 32 140.1328125 C31.2575 140.13168457 30.515 140.13055664 29.75 140.12939453 C28 140 28 140 27 139 C26.8925723 137.3093972 26.85375387 135.61438389 26.84228516 133.92041016 C26.83202301 132.83482819 26.82176086 131.74924622 26.81118774 130.63076782 C26.80388641 129.44550507 26.79658508 128.26024231 26.7890625 127.0390625 C26.76096856 124.54035832 26.73230397 122.0416605 26.703125 119.54296875 C26.66203147 115.59554391 26.62515611 111.64823464 26.59863281 107.70068359 C26.57084098 103.89655727 26.52493893 100.09297561 26.4765625 96.2890625 C26.47330963 95.12404205 26.47005676 93.95902161 26.46670532 92.75869751 C26.35750782 85.3953342 25.30439894 78.99096046 23 72 C22.66621338 70.95924316 22.33242676 69.91848633 21.98852539 68.84619141 C21.54754517 67.6113501 21.54754517 67.6113501 21.09765625 66.3515625 C20.6013269 64.94789429 20.6013269 64.94789429 20.0949707 63.51586914 C19.75425537 62.56188232 19.41354004 61.60789551 19.0625 60.625 C16.18511772 52.46100644 13.47404037 44.29531184 11 36 C8.53510882 27.91951385 6.04326658 19.88482705 3 12 C2.42691397 10.39958463 1.86468168 8.7952476 1.3125 7.1875 C1.06113281 6.45917969 0.80976563 5.73085937 0.55078125 4.98046875 C0 3 0 3 0 0 Z " fill="#551F8E" transform="translate(478,65)"/>
<path d="M0 0 C6.6 0 13.2 0 20 0 C20 39.27 20 78.54 20 119 C33.86 119 47.72 119 62 119 C63.5220959 120.5220959 63.12959521 121.88210082 63.1328125 124 C63.13474609 125.2065625 63.13474609 125.2065625 63.13671875 126.4375 C63.13285156 127.283125 63.12898438 128.12875 63.125 129 C63.13080078 130.2684375 63.13080078 130.2684375 63.13671875 131.5625 C63.13542969 132.366875 63.13414062 133.17125 63.1328125 134 C63.13168457 134.7425 63.13055664 135.485 63.12939453 136.25 C63 138 63 138 62 139 C41.54 139 21.08 139 0 139 C0 93.13 0 47.26 0 0 Z " fill="#531C8E" transform="translate(415,66)"/>
<path d="M0 0 C22.11 0 44.22 0 67 0 C67 6.6 67 13.2 67 20 C59.08 20 51.16 20 43 20 C43 59.6 43 99.2 43 140 C36.73 140 30.46 140 24 140 C24 100.4 24 60.8 24 20 C16.08 20 8.16 20 0 20 C0 13.4 0 6.8 0 0 Z " fill="#531D8D" transform="translate(328,65)"/>
<path d="M0 0 C0.99 0.33 1.98 0.66 3 1 C3 7.27 3 13.54 3 20 C6.3 20 9.6 20 13 20 C13 15.71 13 11.42 13 7 C13.66 7 14.32 7 15 7 C15.33 6.34 15.66 5.68 16 5 C18 7 18 7 18.1953125 9.8203125 C18.17210937 10.91085938 18.14890625 12.00140625 18.125 13.125 C18.10695313 14.22070312 18.08890625 15.31640625 18.0703125 16.4453125 C18.04710937 17.28835937 18.02390625 18.13140625 18 19 C19.051875 19.0825 20.10375 19.165 21.1875 19.25 C25.22213669 19.73608992 28.92832718 20.82682016 32.80078125 22.046875 C33.96391846 22.41135742 35.12705566 22.77583984 36.32543945 23.15136719 C37.20804443 23.43141602 38.09064941 23.71146484 39 24 C39.04629742 34.63964145 39.081856 45.27925901 39.10362434 55.9189806 C39.11407093 60.85919052 39.1282461 65.79933164 39.15087891 70.73950195 C39.17257607 75.50515611 39.18456203 80.27074398 39.18975449 85.03644371 C39.19345587 86.85655448 39.20068355 88.67666153 39.21146011 90.49674416 C39.22593351 93.04193649 39.22797969 95.58685336 39.22705078 98.13208008 C39.23424133 98.88805481 39.24143188 99.64402954 39.24884033 100.4229126 C39.23399918 104.16965187 39.13382972 105.79925542 37 109 C34.66319668 109.76586844 32.45471395 110.35490373 30.0625 110.875 C28.5920958 111.21724065 27.12205693 111.56105387 25.65234375 111.90625 C24.88390137 112.08414063 24.11545898 112.26203125 23.32373047 112.4453125 C20.33427097 113.15891326 17.37081675 113.95546518 14.40429688 114.75830078 C4.90010995 117.32980637 -4.6653336 119.58058957 -14.26782227 121.75366211 C-19.50795247 122.94409015 -24.73063792 124.16760579 -29.9296875 125.52734375 C-30.84242432 125.76517578 -31.75516113 126.00300781 -32.69555664 126.24804688 C-34.38993729 126.69444401 -36.08203989 127.14961824 -37.77124023 127.61523438 C-45.56694329 129.66581237 -50.06960508 127.7015677 -57.0625 124.125 C-58.12307617 123.59712891 -58.12307617 123.59712891 -59.20507812 123.05859375 C-61.1567206 122.07269361 -63.07694804 121.04015481 -65 120 C-65.82371094 119.60554688 -66.64742187 119.21109375 -67.49609375 118.8046875 C-70.04682832 115.74380601 -69.19885846 111.80551983 -69 108 C-68.61188684 103.75093184 -68.08372485 99.52451449 -67.5390625 95.29296875 C-67.38843353 94.09118484 -67.23780457 92.88940094 -67.08261108 91.65119934 C-66.76407267 89.11861664 -66.44286589 86.58636828 -66.11914062 84.05444336 C-65.6279865 80.21087112 -65.14531131 76.3663081 -64.6640625 72.52148438 C-64.35206253 70.04941601 -64.03957825 67.5774087 -63.7265625 65.10546875 C-63.58376862 63.97070602 -63.44097473 62.8359433 -63.29385376 61.66679382 C-62.47596577 55.29163904 -61.53338306 48.9541681 -60.43859863 42.62049866 C-59.80634142 38.84294655 -59.32649122 35.05265318 -58.875 31.25 C-58.441875 27.66125 -58.441875 27.66125 -58 24 C-50.41 23.67 -42.82 23.34 -35 23 C-34.71126993 16.8824163 -34.71126993 16.8824163 -34.43188477 10.7644043 C-34.39377686 10.00039307 -34.35566895 9.23638184 -34.31640625 8.44921875 C-34.27974854 7.66893311 -34.24309082 6.88864746 -34.20532227 6.0847168 C-34 4 -34 4 -33 1 C-31.68 1.33 -30.36 1.66 -29 2 C-28.97277483 4.20826378 -28.95350271 6.41662638 -28.9375 8.625 C-28.92589844 9.85476562 -28.91429687 11.08453125 -28.90234375 12.3515625 C-28.99136076 15.67723791 -29.36313913 18.74047588 -30 22 C-27.03 22 -24.06 22 -21 22 C-21.33 22.66 -21.66 23.32 -22 24 C-24.23730469 24.39477539 -24.23730469 24.39477539 -27.171875 24.59765625 C-28.75742188 24.71657227 -28.75742188 24.71657227 -30.375 24.83789062 C-31.48875 24.91201172 -32.6025 24.98613281 -33.75 25.0625 C-35.9324761 25.2174763 -38.1147772 25.37494154 -40.296875 25.53515625 C-41.26979492 25.600979 -42.24271484 25.66680176 -43.24511719 25.73461914 C-45.88684947 25.98910009 -48.40964409 26.43088878 -51 27 C-48.69 27.99 -46.38 28.98 -44 30 C-44 30.99 -44 31.98 -44 33 C-43.34 33 -42.68 33 -42 33 C-40.36432057 36.27135886 -40.81187522 39.86720156 -40.81640625 43.4609375 C-40.81741837 44.34180023 -40.81843048 45.22266296 -40.81947327 46.13021851 C-40.92361801 57.99732948 -41.96933858 69.80359058 -42.9375 81.625 C-43.30397205 86.20027006 -43.66617902 90.77587074 -44.02734375 95.3515625 C-44.11398285 96.44051819 -44.20062195 97.52947388 -44.28988647 98.65142822 C-45.00521289 107.76097225 -45.55662739 116.87348195 -46 126 C-33.30372958 123.11645075 -20.62140706 120.19726748 -8 117 C0.68741609 114.80232088 9.39425371 112.70642397 18.125 110.6875 C19.22199219 110.43291016 20.31898438 110.17832031 21.44921875 109.91601562 C22.47917969 109.67947266 23.50914062 109.44292969 24.5703125 109.19921875 C25.47539551 108.99127686 26.38047852 108.78333496 27.31298828 108.5690918 C30.19166057 107.95940752 33.09750859 107.48374857 36 107 C36 80.6 36 54.2 36 27 C30.06 27.33 24.12 27.66 18 28 C18.495 32.95 18.495 32.95 19 38 C16 40 16 40 13.3125 39.625 C12.549375 39.41875 11.78625 39.2125 11 39 C11.495 34.05 11.495 34.05 12 29 C2.76 29.66 -6.48 30.32 -16 31 C-15.505 36.445 -15.505 36.445 -15 42 C-18 44 -18 44 -20.125 43.6875 C-22 43 -22 43 -23 42 C-23.35266548 37.88556935 -22.31476877 34.86696696 -21 31 C-20.62468554 28.67305036 -20.28082798 26.34023315 -20 24 C-18.68 24 -17.36 24 -16 24 C-16 25.65 -16 27.3 -16 29 C-14.741875 28.67 -13.48375 28.34 -12.1875 28 C-3.91955361 26.300943 4.6043379 26.84484403 13 27 C13 25.02 13 23.04 13 21 C11.515 21.495 11.515 21.495 10 22 C8.08234406 22.14939774 6.16053478 22.24810283 4.23828125 22.31640625 C3.12001953 22.35830078 2.00175781 22.40019531 0.84960938 22.44335938 C-0.31763672 22.48267578 -1.48488281 22.52199219 -2.6875 22.5625 C-3.86634766 22.60568359 -5.04519531 22.64886719 -6.25976562 22.69335938 C-9.17305883 22.79951176 -12.08643757 22.90156242 -15 23 C-14.67 22.34 -14.34 21.68 -14 21 C-9.71 21 -5.42 21 -1 21 C-1.01160156 19.56785156 -1.02320313 18.13570312 -1.03515625 16.66015625 C-1.04453255 14.79427213 -1.05363292 12.92838661 -1.0625 11.0625 C-1.07087891 10.11697266 -1.07925781 9.17144531 -1.08789062 8.19726562 C-1.09111328 7.29814453 -1.09433594 6.39902344 -1.09765625 5.47265625 C-1.10289307 4.64000244 -1.10812988 3.80734863 -1.11352539 2.94946289 C-1 1 -1 1 0 0 Z " fill="#541D8F" transform="translate(270,76)"/>
<path d="M0 0 C1.90625 1.32421875 1.90625 1.32421875 4.53125 3.94921875 C4.53125 4.60921875 4.53125 5.26921875 4.53125 5.94921875 C5.7275 6.03171875 6.92375 6.11421875 8.15625 6.19921875 C12.45414756 6.74026614 15.16544738 8.14438323 18.53125 10.94921875 C19.90625 13.19921875 19.90625 13.19921875 20.53125 14.94921875 C19.21125 15.27921875 17.89125 15.60921875 16.53125 15.94921875 C16.53125 20.23921875 16.53125 24.52921875 16.53125 28.94921875 C13.23125 28.94921875 9.93125 28.94921875 6.53125 28.94921875 C6.03625 20.03921875 6.03625 20.03921875 5.53125 10.94921875 C4.87125 10.61921875 4.21125 10.28921875 3.53125 9.94921875 C3.20125 16.54921875 2.87125 23.14921875 2.53125 29.94921875 C-3.90375 30.44421875 -3.90375 30.44421875 -10.46875 30.94921875 C-1.55875 30.61921875 7.35125 30.28921875 16.53125 29.94921875 C16.53125 31.92921875 16.53125 33.90921875 16.53125 35.94921875 C15.27570313 36.00980469 14.02015625 36.07039063 12.7265625 36.1328125 C4.30233962 36.55070239 -4.08541769 36.98719701 -12.46875 37.94921875 C-12.46875 36.29921875 -12.46875 34.64921875 -12.46875 32.94921875 C-13.78875 32.94921875 -15.10875 32.94921875 -16.46875 32.94921875 C-16.46875 35.25921875 -16.46875 37.56921875 -16.46875 39.94921875 C-26.36875 40.93921875 -26.36875 40.93921875 -36.46875 41.94921875 C-36.46875 45.57921875 -36.46875 49.20921875 -36.46875 52.94921875 C-36.79875 52.94921875 -37.12875 52.94921875 -37.46875 52.94921875 C-37.79875 49.31921875 -38.12875 45.68921875 -38.46875 41.94921875 C-39.12875 41.94921875 -39.78875 41.94921875 -40.46875 41.94921875 C-40.46875 40.95921875 -40.46875 39.96921875 -40.46875 38.94921875 C-45.41875 37.46421875 -45.41875 37.46421875 -50.46875 35.94921875 C-50.46875 35.61921875 -50.46875 35.28921875 -50.46875 34.94921875 C-39.90875 33.95921875 -29.34875 32.96921875 -18.46875 31.94921875 C-21.10875 31.61921875 -23.74875 31.28921875 -26.46875 30.94921875 C-26.13875 24.34921875 -25.80875 17.74921875 -25.46875 10.94921875 C-26.45875 10.61921875 -27.44875 10.28921875 -28.46875 9.94921875 C-26.63443301 5.44680432 -23.59577976 2.01458968 -19.23046875 -0.171875 C-13.30986266 -2.05608486 -5.78036788 -2.46031481 0 0 Z " fill="#5A2E8A" transform="translate(266.46875,67.05078125)"/>
<path d="M0 0 C19 0 19 0 25 3 C28.80056774 6.80056774 28.17239393 11.53725892 28.203125 16.65234375 C28.20882507 17.38949112 28.21452515 18.12663849 28.22039795 18.88612366 C28.22982266 20.44189021 28.23637186 21.99767649 28.24023438 23.5534668 C28.24995278 25.92597344 28.28100379 28.29761783 28.3125 30.66992188 C28.31902965 32.18489071 28.32428027 33.69986572 28.328125 35.21484375 C28.3404718 35.9201976 28.3528186 36.62555145 28.36553955 37.35227966 C28.34573675 41.7562433 27.8626497 44.60258201 25 48 C19 51 19 51 0 51 C0 34.17 0 17.34 0 0 Z " fill="#FAF7FB" transform="translate(136,87)"/>
<path d="M0 0 C0.99 0.33 1.98 0.66 3 1 C3 7.27 3 13.54 3 20 C6.3 20 9.6 20 13 20 C13 15.71 13 11.42 13 7 C13.66 7 14.32 7 15 7 C15.33 6.34 15.66 5.68 16 5 C18 7 18 7 18.1953125 9.8203125 C18.17210937 10.91085938 18.14890625 12.00140625 18.125 13.125 C18.10695313 14.22070312 18.08890625 15.31640625 18.0703125 16.4453125 C18.04710937 17.28835937 18.02390625 18.13140625 18 19 C19.051875 19.0825 20.10375 19.165 21.1875 19.25 C25.22213669 19.73608992 28.92832718 20.82682016 32.80078125 22.046875 C33.96391846 22.41135742 35.12705566 22.77583984 36.32543945 23.15136719 C37.20804443 23.43141602 38.09064941 23.71146484 39 24 C39.04629742 34.63964145 39.081856 45.27925901 39.10362434 55.9189806 C39.11407093 60.85919052 39.1282461 65.79933164 39.15087891 70.73950195 C39.17257607 75.50515611 39.18456203 80.27074398 39.18975449 85.03644371 C39.19345587 86.85655448 39.20068355 88.67666153 39.21146011 90.49674416 C39.22593351 93.04193649 39.22797969 95.58685336 39.22705078 98.13208008 C39.23424133 98.88805481 39.24143188 99.64402954 39.24884033 100.4229126 C39.23399918 104.16965187 39.13382972 105.79925542 37 109 C34.66319668 109.76586844 32.45471395 110.35490373 30.0625 110.875 C28.5920958 111.21724065 27.12205693 111.56105387 25.65234375 111.90625 C24.49968018 112.17308594 24.49968018 112.17308594 23.32373047 112.4453125 C20.33369395 113.15905099 17.36967187 113.95576644 14.40258789 114.75878906 C2.74353152 117.91319557 -9.01881162 120.59745582 -20.79589844 123.27050781 C-26.20020025 124.50092947 -31.6000115 125.75080632 -37 127 C-37.33 126.01 -37.66 125.02 -38 124 C-37.25468018 123.83508057 -36.50936035 123.67016113 -35.74145508 123.50024414 C-17.81245923 119.52100425 0.05617596 115.33910492 17.88549805 110.93383789 C18.64895538 110.74599228 19.41241272 110.55814667 20.19900513 110.36460876 C21.62347071 110.01396277 23.04748012 109.66145579 24.47091675 109.30665588 C28.31675631 108.36064131 32.07860674 107.65356554 36 107 C36 80.6 36 54.2 36 27 C30.06 27.33 24.12 27.66 18 28 C18.495 32.95 18.495 32.95 19 38 C16 40 16 40 13.3125 39.625 C12.549375 39.41875 11.78625 39.2125 11 39 C11.495 34.05 11.495 34.05 12 29 C2.76 29.66 -6.48 30.32 -16 31 C-15.67 34.63 -15.34 38.26 -15 42 C-18 44 -18 44 -20.125 43.6875 C-22 43 -22 43 -23 42 C-23.35266548 37.88556935 -22.31476877 34.86696696 -21 31 C-20.62468554 28.67305036 -20.28082798 26.34023315 -20 24 C-18.68 24 -17.36 24 -16 24 C-16 25.65 -16 27.3 -16 29 C-14.741875 28.67 -13.48375 28.34 -12.1875 28 C-3.91955361 26.300943 4.6043379 26.84484403 13 27 C13 25.02 13 23.04 13 21 C12.01 21.33 11.02 21.66 10 22 C8.08234406 22.14939774 6.16053478 22.24810283 4.23828125 22.31640625 C3.12001953 22.35830078 2.00175781 22.40019531 0.84960938 22.44335938 C-0.31763672 22.48267578 -1.48488281 22.52199219 -2.6875 22.5625 C-3.86634766 22.60568359 -5.04519531 22.64886719 -6.25976562 22.69335938 C-9.17305883 22.79951176 -12.08643757 22.90156242 -15 23 C-14.67 22.34 -14.34 21.68 -14 21 C-9.71 21 -5.42 21 -1 21 C-1.01160156 19.56785156 -1.02320313 18.13570312 -1.03515625 16.66015625 C-1.04453255 14.79427213 -1.05363292 12.92838661 -1.0625 11.0625 C-1.07087891 10.11697266 -1.07925781 9.17144531 -1.08789062 8.19726562 C-1.09111328 7.29814453 -1.09433594 6.39902344 -1.09765625 5.47265625 C-1.10289307 4.64000244 -1.10812988 3.80734863 -1.11352539 2.94946289 C-1 1 -1 1 0 0 Z " fill="#512480" transform="translate(270,76)"/>
<path d="M0 0 C6.6 0 13.2 0 20 0 C20 39.27 20 78.54 20 119 C33.86 119 47.72 119 62 119 C63.5220959 120.5220959 63.12959521 121.88210082 63.1328125 124 C63.13474609 125.2065625 63.13474609 125.2065625 63.13671875 126.4375 C63.13285156 127.283125 63.12898438 128.12875 63.125 129 C63.13080078 130.2684375 63.13080078 130.2684375 63.13671875 131.5625 C63.13542969 132.366875 63.13414062 133.17125 63.1328125 134 C63.13168457 134.7425 63.13055664 135.485 63.12939453 136.25 C63 138 63 138 62 139 C41.54 139 21.08 139 0 139 C0 93.13 0 47.26 0 0 Z M1 1 C1 46.21 1 91.42 1 138 C30.56015191 138.58606597 30.56015191 138.58606597 60 137 C61.42597611 134.14804778 61.1320252 131.67538825 61.125 128.5 C61.12757813 127.3346875 61.13015625 126.169375 61.1328125 124.96875 C61.2048431 122.07069214 61.2048431 122.07069214 60 120 C46.47 120 32.94 120 19 120 C18.17916176 116.71664706 17.87770863 114.49675519 17.88647461 111.1978302 C17.8865451 110.23456314 17.8866156 109.27129608 17.88668823 108.27883911 C17.89185455 107.22880707 17.89702087 106.17877502 17.90234375 105.09692383 C17.90380402 103.98603897 17.90526428 102.87515411 17.9067688 101.73060608 C17.91057443 99.31883615 17.91669061 96.90706901 17.92483521 94.49530983 C17.93757449 90.68474901 17.94410784 86.87422289 17.94897461 83.06364441 C17.96041234 74.97991306 17.97962001 66.89621251 18 58.8125 C18.02361316 49.43762592 18.04394763 40.06277025 18.05593872 30.68787193 C18.06245164 26.92249271 18.07495803 23.15716269 18.08764648 19.39179993 C18.09127665 17.09949792 18.09462867 14.80719546 18.09765625 12.51489258 C18.10282257 11.45878784 18.10798889 10.40268311 18.11331177 9.3145752 C18.11338226 8.35976761 18.11345276 7.40496002 18.11352539 6.42121887 C18.115746 5.58666074 18.11796661 4.7521026 18.12025452 3.89225483 C18.20850531 1.98822651 18.20850531 1.98822651 17 1 C11.72 1 6.44 1 1 1 Z " fill="#80639C" transform="translate(415,66)"/>
<path d="M0 0 C0.04629742 10.63964145 0.081856 21.27925901 0.10362434 31.9189806 C0.11407093 36.85919052 0.1282461 41.79933164 0.15087891 46.73950195 C0.17257607 51.50515611 0.18456203 56.27074398 0.18975449 61.03644371 C0.19345587 62.85655448 0.20068355 64.67666153 0.21146011 66.49674416 C0.22593351 69.04193649 0.22797969 71.58685336 0.22705078 74.13208008 C0.23424133 74.88805481 0.24143188 75.64402954 0.24884033 76.4229126 C0.23399918 80.16965187 0.13382972 81.79925542 -2 85 C-4.33680332 85.76586844 -6.54528605 86.35490373 -8.9375 86.875 C-10.4079042 87.21724065 -11.87794307 87.56105387 -13.34765625 87.90625 C-14.50031982 88.17308594 -14.50031982 88.17308594 -15.67626953 88.4453125 C-18.66630605 89.15905099 -21.63032813 89.95576644 -24.59741211 90.75878906 C-36.25646848 93.91319557 -48.01881162 96.59745582 -59.79589844 99.27050781 C-65.20020025 100.50092947 -70.6000115 101.75080632 -76 103 C-76.33 102.01 -76.66 101.02 -77 100 C-76.25468018 99.83508057 -75.50936035 99.67016113 -74.74145508 99.50024414 C-56.81245923 95.52100425 -38.94382404 91.33910492 -21.11450195 86.93383789 C-20.35104462 86.74599228 -19.58758728 86.55814667 -18.80099487 86.36460876 C-17.37652929 86.01396277 -15.95251988 85.66145579 -14.52908325 85.30665588 C-10.68324369 84.36064131 -6.92139326 83.65356554 -3 83 C-3 56.6 -3 30.2 -3 3 C-4.98 3 -6.96 3 -9 3 C-9 2.34 -9 1.68 -9 1 C-5.8035914 -0.06546953 -3.34252724 -0.07427838 0 0 Z " fill="#6F5986" transform="translate(309,100)"/>
<path d="M0 0 C0 0.66 0 1.32 0 2 C-1.051875 2.37125 -2.10375 2.7425 -3.1875 3.125 C-7.21418241 4.93456173 -10.15706494 6.89658991 -12 11 C-13.00291243 15.98322114 -13.56856998 20.93874636 -14 26 C-17.3 26 -20.6 26 -24 26 C-23.91218733 23.47765681 -23.80521993 20.9584835 -23.6875 18.4375 C-23.66494141 17.73302734 -23.64238281 17.02855469 -23.61914062 16.30273438 C-23.30360283 10.07803422 -22.1122272 5.05942152 -17.5 0.5625 C-11.89564714 -1.93944324 -5.82119962 -1.94039987 0 0 Z " fill="#F5EEF8" transform="translate(264,72)"/>
<path d="M0 0 C6.27 0 12.54 0 19 0 C19 39.93 19 79.86 19 121 C17.515 120.01 17.515 120.01 16 119 C15.63085651 116.92667198 15.63085651 116.92667198 15.63923645 114.31771851 C15.63511246 113.33051315 15.63098846 112.3433078 15.6267395 111.32618713 C15.63752533 110.23934128 15.64831116 109.15249542 15.65942383 108.03271484 C15.65898575 106.89125504 15.65854767 105.74979523 15.65809631 104.57374573 C15.66019291 100.78597134 15.68356554 96.99863494 15.70703125 93.2109375 C15.71262409 90.5906295 15.71689566 87.97031836 15.71989441 85.3500061 C15.72922755 79.14866085 15.75385831 72.94747381 15.78394288 66.7461983 C15.81744758 59.68705826 15.83396297 52.62791076 15.84902918 45.56871104 C15.88040688 31.04572365 15.93379452 16.52286932 16 2 C10.72 1.67 5.44 1.34 0 1 C0 0.67 0 0.34 0 0 Z " fill="#684589" transform="translate(416,66)"/>
<path d="M0 0 C0 6.27 0 12.54 0 19 C-4.62 19 -9.24 19 -14 19 C-14.80357143 8.15178571 -14.80357143 8.15178571 -11.1875 3.875 C-7.63147233 0.20482823 -5.23014767 0 0 0 Z " fill="#F6F0F9" transform="translate(269,78)"/>
<path d="M0 0 C0.99 0.33 1.98 0.66 3 1 C3.33 19.81 3.66 38.62 4 58 C8.95 58.33 13.9 58.66 19 59 C19.33 41.18 19.66 23.36 20 5 C20.33 5 20.66 5 21 5 C21.02526563 12.81452752 21.04283105 20.62904458 21.05493164 28.44360352 C21.05997383 31.10441481 21.06680736 33.76522332 21.07543945 36.42602539 C21.08751009 40.24105516 21.09322929 44.05604844 21.09765625 47.87109375 C21.10281754 49.06899033 21.10797882 50.2668869 21.11329651 51.50108337 C21.11340981 53.15268211 21.11340981 53.15268211 21.11352539 54.83764648 C21.115746 55.81249496 21.11796661 56.78734344 21.12025452 57.79173279 C21 60 21 60 20 61 C18.66956375 61.0983721 17.33406656 61.13078592 16 61.1328125 C15.195625 61.13410156 14.39125 61.13539063 13.5625 61.13671875 C12.716875 61.13285156 11.87125 61.12898438 11 61.125 C10.154375 61.12886719 9.30875 61.13273437 8.4375 61.13671875 C7.633125 61.13542969 6.82875 61.13414062 6 61.1328125 C5.2575 61.13168457 4.515 61.13055664 3.75 61.12939453 C2 61 2 61 1 60 C0.87655973 58.12903889 0.82207606 56.25349072 0.79467773 54.37866211 C0.77473251 53.17749252 0.75478729 51.97632294 0.73423767 50.73875427 C0.71752518 49.4314888 0.70081268 48.12422333 0.68359375 46.77734375 C0.66303042 45.43355153 0.64203412 44.08976588 0.62062073 42.74598694 C0.56533581 39.20325013 0.51595502 35.66045433 0.46777344 32.11761475 C0.41760513 28.5047885 0.36189475 24.89204828 0.30664062 21.27929688 C0.19898063 14.18627253 0.0975532 7.09317112 0 0 Z " fill="#6B4A8B" transform="translate(504,144)"/>
<path d="M0 0 C22.11 0 44.22 0 67 0 C67 6.6 67 13.2 67 20 C59.41 20 51.82 20 44 20 C44 19.67 44 19.34 44 19 C51.26 19 58.52 19 66 19 C65.67 13.72 65.34 8.44 65 3 C33.32 2.505 33.32 2.505 1 2 C1 7.61 1 13.22 1 19 C8.26 19 15.52 19 23 19 C23 19.33 23 19.66 23 20 C15.41 20 7.82 20 0 20 C0 13.4 0 6.8 0 0 Z " fill="#6E4E8D" transform="translate(328,65)"/>
<path d="M0 0 C1.32 0.33 2.64 0.66 4 1 C4.02722517 3.20826378 4.04649729 5.41662638 4.0625 7.625 C4.07410156 8.85476562 4.08570313 10.08453125 4.09765625 11.3515625 C4.00863924 14.67723791 3.63686087 17.74047588 3 21 C5.97 21 8.94 21 12 21 C11.67 21.66 11.34 22.32 11 23 C8.60962545 23.39364574 6.31115351 23.6598465 3.90234375 23.8515625 C2.83905602 23.94719986 2.83905602 23.94719986 1.75428772 24.04476929 C-0.51729753 24.24703191 -2.7897646 24.43614463 -5.0625 24.625 C-6.59968511 24.75955424 -8.13679596 24.89495982 -9.67382812 25.03125 C-13.44842683 25.36406358 -17.22386755 25.68508564 -21 26 C-21.66 27.98 -22.32 29.96 -23 32 C-23.66 32 -24.32 32 -25 32 C-25 29.03 -25 26.06 -25 23 C-17.41 22.67 -9.82 22.34 -2 22 C-1.71126993 15.8824163 -1.71126993 15.8824163 -1.43188477 9.7644043 C-1.39377686 9.00039307 -1.35566895 8.23638184 -1.31640625 7.44921875 C-1.27974854 6.66893311 -1.24309082 5.88864746 -1.20532227 5.0847168 C-1 3 -1 3 0 0 Z " fill="#522781" transform="translate(237,77)"/>
<path d="M0 0 C-18.29335144 4.63082519 -36.60056987 9.14759947 -55.00537109 13.31884766 C-60.34004921 14.53226295 -65.66982225 15.76699115 -71 17 C-71.33 16.01 -71.66 15.02 -72 14 C-71.25468018 13.83508057 -70.50936035 13.67016113 -69.74145508 13.50024414 C-66.78093946 12.84317433 -63.82107787 12.18325139 -60.86172485 11.52096558 C-59.49627339 11.21547812 -58.13069304 10.91056618 -56.76498413 10.60623169 C-48.09475784 8.67067193 -39.45686698 6.63728617 -30.84375 4.4609375 C-29.15649705 4.03766742 -27.46924122 3.61440887 -25.78198242 3.19116211 C-23.30196251 2.56831498 -20.82376983 1.94043058 -18.34902954 1.29690552 C-16.03376917 0.69488095 -13.71479395 0.10973811 -11.39453125 -0.47265625 C-10.70415771 -0.65764679 -10.01378418 -0.84263733 -9.30249023 -1.03323364 C-5.5242729 -1.96372999 -3.25731959 -2.3203037 0 0 Z " fill="#614F78" transform="translate(304,186)"/>
<path d="M0 0 C0.66 0.33 1.32 0.66 2 1 C2.04967812 5.9987648 2.08585063 10.99738379 2.10986328 15.99633789 C2.11988065 17.69460557 2.13349838 19.39285617 2.15087891 21.09106445 C2.17531579 23.54122142 2.1865259 25.99114905 2.1953125 28.44140625 C2.20563507 29.19273331 2.21595764 29.94406036 2.22659302 30.71815491 C2.22772901 36.13423288 1.81373995 41.27748526 -1.27856445 45.91918945 C-3.75294736 47.47274117 -5.63845356 47.33907217 -8.54296875 47.29296875 C-10.15268555 47.2784668 -10.15268555 47.2784668 -11.79492188 47.26367188 C-12.91447266 47.23853516 -14.03402344 47.21339844 -15.1875 47.1875 C-16.31865234 47.17396484 -17.44980469 47.16042969 -18.61523438 47.14648438 C-21.41063317 47.11109958 -24.20507892 47.06172948 -27 47 C-27 46.34 -27 45.68 -27 45 C-25.77023438 44.96261719 -24.54046875 44.92523438 -23.2734375 44.88671875 C-21.64059599 44.82102972 -20.00778482 44.75458341 -18.375 44.6875 C-17.56675781 44.66494141 -16.75851563 44.64238281 -15.92578125 44.61914062 C-10.96411383 44.39727745 -7.23734427 43.84879915 -3 41 C-0.30923777 37.25554919 -0.65077603 32.94262149 -0.5859375 28.515625 C-0.56657135 27.70003113 -0.5472052 26.88443726 -0.5272522 26.04412842 C-0.46760425 23.44619108 -0.42113058 20.84820907 -0.375 18.25 C-0.33680658 16.48565806 -0.29775405 14.72133449 -0.2578125 12.95703125 C-0.16191495 8.63817054 -0.07782953 4.31922256 0 0 Z " fill="#52287D" transform="translate(164,93)"/>
<path d="M0 0 C0 1.98 0 3.96 0 6 C-1.88332031 6.09087891 -1.88332031 6.09087891 -3.8046875 6.18359375 C-12.22891038 6.60148364 -20.61666769 7.03797826 -29 8 C-29 6.02 -29 4.04 -29 2 C-24.72931106 1.66479928 -20.45842656 1.33215824 -16.1875 1 C-14.97255859 0.90460938 -13.75761719 0.80921875 -12.50585938 0.7109375 C-11.34248047 0.62070313 -10.17910156 0.53046875 -8.98046875 0.4375 C-7.90692139 0.35371094 -6.83337402 0.26992187 -5.72729492 0.18359375 C-3.82152919 0.05530301 -1.91007893 0 0 0 Z " fill="#EEE4F4" transform="translate(283,97)"/>
<path d="M0 0 C6.27 0 12.54 0 19 0 C19 8.91 19 17.82 19 27 C16.79807776 23.69711664 16.76040032 22.72537273 16.8046875 18.89453125 C16.81113281 17.91162109 16.81757812 16.92871094 16.82421875 15.91601562 C16.84097656 14.89185547 16.85773437 13.86769531 16.875 12.8125 C16.88402344 11.77673828 16.89304687 10.74097656 16.90234375 9.67382812 C16.92592017 7.11578694 16.96179124 4.55786447 17 2 C12.05 2 7.1 2 2 2 C2.11467519 5.50061105 2.24141607 9.00010098 2.375 12.5 C2.4059375 13.48226562 2.436875 14.46453125 2.46875 15.4765625 C2.70104778 21.28400709 3.38207305 26.4175345 5 32 C5.338293 33.33208361 5.67287617 34.66512964 6 36 C1.5356681 31.98092955 0.22968004 26.9030987 -0.23583984 21.01904297 C-0.29390095 17.81972722 -0.26269963 14.63637677 -0.1875 11.4375 C-0.17396484 10.33341797 -0.16042969 9.22933594 -0.14648438 8.09179688 C-0.11145217 5.3943168 -0.05765753 2.69709133 0 0 Z " fill="#5A3581" transform="translate(34,155)"/>
<path d="M0 0 C6 2 6 2 8 4 C9.07159988 7.10022605 9.1053968 9.98984329 9.0625 13.25 C9.05347656 14.14203125 9.04445313 15.0340625 9.03515625 15.953125 C9.02355469 16.62859375 9.01195312 17.3040625 9 18 C6.03 18 3.06 18 0 18 C0 12.06 0 6.12 0 0 Z " fill="#F7F0F9" transform="translate(274,78)"/>
<path d="M0 0 C0.33 0 0.66 0 1 0 C1.24636872 12.73817533 0.47271313 25.30467915 -0.5 38 C-0.64506905 39.95048091 -0.78960357 41.90100165 -0.93359375 43.8515625 C-1.28292042 48.56818886 -1.63941175 53.28422179 -2 58 C2.95 57.505 2.95 57.505 8 57 C7.67 57.66 7.34 58.32 7 59 C4.85546875 59.703125 4.85546875 59.703125 2.1875 60.25 C1.31480469 60.44078125 0.44210938 60.6315625 -0.45703125 60.828125 C-3.31326419 61.021173 -4.6043839 60.49656204 -7 59 C-6.79503906 58.46117187 -6.59007812 57.92234375 -6.37890625 57.3671875 C-3.53816703 48.69545726 -3.47172179 40.04642793 -3.2109375 31.01171875 C-3.09095741 27.25096339 -2.66296698 23.70751535 -2 20 C-1.75634285 16.58203167 -1.56406136 13.1680904 -1.39453125 9.74609375 C-1.21062396 6.39137107 -1.00103342 3.21999084 0 0 Z " fill="#542B7E" transform="translate(226,144)"/>
<path d="M0 0 C0 1.65 0 3.3 0 5 C-10.7890309 6.54129013 -22.99332319 8.0033384 -33 3 C-33 2.67 -33 2.34 -33 2 C-29.18803848 1.66031579 -25.3753608 1.32942405 -21.5625 1 C-20.49322266 0.90460938 -19.42394531 0.80921875 -18.32226562 0.7109375 C-12.18697229 0.18559128 -6.15747494 -0.10359579 0 0 Z " fill="#FBF4FD" transform="translate(249,100)"/>
<path d="M0 0 C6.36230698 0.39764419 10.94828478 5.00373654 15.3125 9.25 C20.47797376 17.66780909 20.49185208 26.88462375 20.4375 36.5 C20.4674707 38.38138672 20.4674707 38.38138672 20.49804688 40.30078125 C20.49416058 47.72361238 20.07176147 54.5818671 16 61 C13.86108398 62.76757812 13.86108398 62.76757812 12 64 C12.309375 63.236875 12.61875 62.47375 12.9375 61.6875 C13.67893593 59.81210323 14.36228217 57.91315348 15 56 C15.66 56 16.32 56 17 56 C17.04989482 51.19858265 17.08595085 46.39732031 17.10986328 41.59570312 C17.1198449 39.96644457 17.13343499 38.33720356 17.15087891 36.70800781 C17.86730929 23.54962892 17.86730929 23.54962892 15 11 C13.00402126 9.72017268 13.00402126 9.72017268 11 9 C11 8.34 11 7.68 11 7 C10.2575 6.9175 9.515 6.835 8.75 6.75 C5.44976235 5.84993519 4.23029279 4.53791938 2 2 C1.34 1.34 0.68 0.68 0 0 Z " fill="#502B78" transform="translate(79,130)"/>
<path d="M0 0 C0.99 0.33 1.98 0.66 3 1 C3 7.27 3 13.54 3 20 C6.63 19.67 10.26 19.34 14 19 C14 19.66 14 20.32 14 21 C10.68973391 21.97299662 7.58290092 22.19346782 4.140625 22.31640625 C3.02558594 22.35830078 1.91054688 22.40019531 0.76171875 22.44335938 C-0.97658203 22.50233398 -0.97658203 22.50233398 -2.75 22.5625 C-3.92433594 22.60568359 -5.09867187 22.64886719 -6.30859375 22.69335938 C-9.20561451 22.79934794 -12.10271935 22.90141638 -15 23 C-14.67 22.34 -14.34 21.68 -14 21 C-9.71 21 -5.42 21 -1 21 C-1.01740234 18.85177734 -1.01740234 18.85177734 -1.03515625 16.66015625 C-1.04453255 14.79427213 -1.05363292 12.92838661 -1.0625 11.0625 C-1.07087891 10.11697266 -1.07925781 9.17144531 -1.08789062 8.19726562 C-1.09111328 7.29814453 -1.09433594 6.39902344 -1.09765625 5.47265625 C-1.10289307 4.64000244 -1.10812988 3.80734863 -1.11352539 2.94946289 C-1 1 -1 1 0 0 Z " fill="#4F2B77" transform="translate(270,76)"/>
<path d="M0 0 C0.99 0 1.98 0 3 0 C3 2.64 3 5.28 3 8 C2.34 8 1.68 8 1 8 C1.33 11.3 1.66 14.6 2 18 C-1 20 -1 20 -3.6875 19.625 C-4.8321875 19.315625 -4.8321875 19.315625 -6 19 C-5.67 15.7 -5.34 12.4 -5 9 C-6.98 9 -8.96 9 -11 9 C-11 8.67 -11 8.34 -11 8 C-8.69 8 -6.38 8 -4 8 C-4 9.32 -4 10.64 -4 12 C-2.68 10.68 -1.36 9.36 0 8 C-0.99 8 -1.98 8 -3 8 C-2.67 7.01 -2.34 6.02 -2 5 C-1.34 5 -0.68 5 0 5 C0 3.35 0 1.7 0 0 Z " fill="#67468A" transform="translate(287,96)"/>
<path d="M0 0 C0.33 0 0.66 0 1 0 C1.02526563 7.81452752 1.04283105 15.62904458 1.05493164 23.44360352 C1.05997383 26.10441481 1.06680736 28.76522332 1.07543945 31.42602539 C1.08751009 35.24105516 1.09322929 39.05604844 1.09765625 42.87109375 C1.10281754 44.06899033 1.10797882 45.2668869 1.11329651 46.50108337 C1.11340981 48.15268211 1.11340981 48.15268211 1.11352539 49.83764648 C1.115746 50.81249496 1.11796661 51.78734344 1.12025452 52.79173279 C1 55 1 55 0 56 C-1.34267413 56.08631874 -2.68974322 56.10706473 -4.03515625 56.09765625 C-4.84404297 56.09443359 -5.65292969 56.09121094 -6.48632812 56.08789062 C-7.33646484 56.07951172 -8.18660156 56.07113281 -9.0625 56.0625 C-9.91650391 56.05798828 -10.77050781 56.05347656 -11.65039062 56.04882812 C-13.76695663 56.03700373 -15.88348685 56.01906769 -18 56 C-14 54 -14 54 -1 54 C-0.67 36.18 -0.34 18.36 0 0 Z " fill="#735491" transform="translate(524,149)"/>
<path d="M0 0 C1.1668112 3.5004336 0.86998695 3.84311528 -0.6171875 7.03125 C-9.19572421 27.38605753 -8.21414327 48.27635451 -8 70 C-8.33 70 -8.66 70 -9 70 C-9.12516286 63.88435018 -9.21506505 57.76947289 -9.2746582 51.65283203 C-9.29954384 49.57945746 -9.33346525 47.50616816 -9.37719727 45.43310547 C-9.72589514 28.45767225 -7.43211965 15.41476669 0 0 Z " fill="#4D247D" transform="translate(532,122)"/>
<path d="M0 0 C0.66 1.32 1.32 2.64 2 4 C1.34 4.66 0.68 5.32 0 6 C-1.32 6 -2.64 6 -4 6 C-4 8.31 -4 10.62 -4 13 C-10.6 13.66 -17.2 14.32 -24 15 C-24 18.63 -24 22.26 -24 26 C-24.33 26 -24.66 26 -25 26 C-25.33 22.37 -25.66 18.74 -26 15 C-26.66 15 -27.32 15 -28 15 C-28 14.01 -28 13.02 -28 12 C-20.41 11.67 -12.82 11.34 -5 11 C-5.33 9.02 -5.66 7.04 -6 5 C-5.34 4.67 -4.68 4.34 -4 4 C-3.34 4.33 -2.68 4.66 -2 5 C-2 4.34 -2 3.68 -2 3 C-1.34 3 -0.68 3 0 3 C0 2.01 0 1.02 0 0 Z " fill="#5D407B" transform="translate(254,94)"/>
<path d="M0 0 C5.96313166 -0.02464574 11.92623395 -0.042834 17.8894043 -0.05493164 C19.91968298 -0.05997278 21.94995802 -0.06680557 23.98022461 -0.07543945 C26.89177347 -0.08751467 29.8032745 -0.09323034 32.71484375 -0.09765625 C33.6283812 -0.10281754 34.54191864 -0.10797882 35.48313904 -0.11329651 C37.65575427 -0.11349168 39.82827296 -0.06211805 42 0 C43 1 43 1 43.11352539 2.76586914 C43.10828857 3.51473389 43.10305176 4.26359863 43.09765625 5.03515625 C43.09443359 5.84404297 43.09121094 6.65292969 43.08789062 7.48632812 C43.07532227 8.7615332 43.07532227 8.7615332 43.0625 10.0625 C43.05798828 10.91650391 43.05347656 11.77050781 43.04882812 12.65039062 C43.03700373 14.76695663 43.01906769 16.88348685 43 19 C39.04 19 35.08 19 31 19 C31 18.67 31 18.34 31 18 C33.97 18 36.94 18 40 18 C40 12.39 40 6.78 40 1 C26.8 1 13.6 1 0 1 C0 0.67 0 0.34 0 0 Z " fill="#6E4D91" transform="translate(435,185)"/>
<path d="M0 0 C0.99 0.33 1.98 0.66 3 1 C2.0787571 6.68099789 1.03745006 12.33935016 0 18 C-0.66 18 -1.32 18 -2 18 C-2 18.66 -2 19.32 -2 20 C-2.66 20 -3.32 20 -4 20 C-4.31393637 12.91899067 -4.49130512 7.28434922 -1 1 C-0.67 0.67 -0.34 0.34 0 0 Z " fill="#52287E" transform="translate(254,79)"/>
<path d="M0 0 C4.62299378 2.1830804 7.27695554 5.22784254 9 10 C9.94607708 15.98933508 10.07010971 21.69929556 9.87890625 27.75 C9.85529526 28.64871826 9.83168427 29.54743652 9.80735779 30.47338867 C9.73139464 33.31578078 9.64708485 36.15785273 9.5625 39 C9.5092117 40.93878694 9.4564719 42.87758903 9.40429688 44.81640625 C9.27587186 49.54446972 9.13996585 54.27226467 9 59 C7.35708257 56.11578912 6.760106 54.11271668 6.83642578 50.80151367 C6.85601852 49.57455025 6.85601852 49.57455025 6.87600708 48.32279968 C6.89887787 47.44670547 6.92174866 46.57061127 6.9453125 45.66796875 C6.97061145 43.79883561 6.9953329 41.92969459 7.01953125 40.06054688 C7.0690854 37.12434107 7.12497609 34.18854884 7.19189453 31.25268555 C7.25257523 28.41192096 7.28793289 25.57167762 7.3203125 22.73046875 C7.34723175 21.86044724 7.374151 20.99042572 7.40188599 20.09403992 C7.4593915 13.05269992 5.50120572 9.30516471 1.25 3.6875 C0 2 0 2 0 0 Z " fill="#512182" transform="translate(172,74)"/>
<path d="M0 0 C0.33 0 0.66 0 1 0 C1.144375 0.7425 1.28875 1.485 1.4375 2.25 C1.623125 3.1575 1.80875 4.065 2 5 C2.144375 5.7425 2.28875 6.485 2.4375 7.25 C2.623125 7.8275 2.80875 8.405 3 9 C3.66 9.33 4.32 9.66 5 10 C-6.88 10.99 -6.88 10.99 -19 12 C-19.66 13.98 -20.32 15.96 -21 18 C-21.66 18 -22.32 18 -23 18 C-23 15.03 -23 12.06 -23 9 C-15.41 8.67 -7.82 8.34 0 8 C0 5.36 0 2.72 0 0 Z " fill="#4E366B" transform="translate(235,91)"/>
<path d="M0 0 C0 0.99 0 1.98 0 3 C-6.05474707 6.60956075 -9.92640251 8.13271371 -17.078125 8.09765625 C-18.23828125 8.09443359 -19.3984375 8.09121094 -20.59375 8.08789062 C-21.8003125 8.07951172 -23.006875 8.07113281 -24.25 8.0625 C-25.47203125 8.05798828 -26.6940625 8.05347656 -27.953125 8.04882812 C-30.96879946 8.03704815 -33.98437498 8.02059853 -37 8 C-37 7.34 -37 6.68 -37 6 C-21.655 5.505 -21.655 5.505 -6 5 C-6 4.34 -6 3.68 -6 3 C-3.8614515 0.8614515 -2.86724686 0.57344937 0 0 Z " fill="#4F277A" transform="translate(173,148)"/>
<path d="M0 0 C0.33 0 0.66 0 1 0 C1.32339088 8.00452304 0.45281716 15.80306464 -0.59912109 23.72436523 C-0.87663483 25.82487406 -1.14005542 27.92683855 -1.40234375 30.02929688 C-1.57728907 31.38031684 -1.75304149 32.7312326 -1.9296875 34.08203125 C-2.16534424 35.89537964 -2.16534424 35.89537964 -2.40576172 37.74536133 C-2.95325301 40.74396706 -3.75035779 43.23097334 -5 46 C-6.00632019 42.78665779 -5.97456907 40.31945016 -5.546875 36.9921875 C-5.42352783 36.01314453 -5.30018066 35.03410156 -5.1730957 34.02539062 C-5.03347412 32.98576172 -4.89385254 31.94613281 -4.75 30.875 C-4.61231201 29.81216797 -4.47462402 28.74933594 -4.33276367 27.65429688 C-3.10904345 18.39761346 -1.63643381 9.19188351 0 0 Z " fill="#5B3482" transform="translate(211,110)"/>
<path d="M0 0 C0.625 1.75 0.625 1.75 1 4 C0.5359375 4.8971875 0.5359375 4.8971875 0.0625 5.8125 C-1.17789896 8.36626256 -1.40230295 10.42917071 -1.625 13.25 C-1.69976562 14.14203125 -1.77453125 15.0340625 -1.8515625 15.953125 C-1.90054688 16.62859375 -1.94953125 17.3040625 -2 18 C-2.66 18 -3.32 18 -4 18 C-4 25.92 -4 33.84 -4 42 C-4.33 42 -4.66 42 -5 42 C-5.04987075 38.01647832 -5.08593964 34.0330805 -5.10986328 30.04931641 C-5.12472879 28.03671881 -5.150157 26.02420812 -5.17578125 24.01171875 C-5.22042924 15.12676939 -5.19592801 7.55771347 0 0 Z " fill="#714F95" transform="translate(39,78)"/>
<path d="M0 0 C6.36230698 0.39764419 10.94828478 5.00373654 15.3125 9.25 C18.17981808 13.92266651 20.41035334 19.2894091 19.57421875 24.8125 C19.28998047 25.8953125 19.28998047 25.8953125 19 27 C18.67 27 18.34 27 18 27 C17.82984375 25.86820313 17.6596875 24.73640625 17.484375 23.5703125 C17.24051404 22.08838821 16.9956712 20.60662526 16.75 19.125 C16.64042969 18.37863281 16.53085938 17.63226563 16.41796875 16.86328125 C15.78170192 12.53186074 15.78170192 12.53186074 12.890625 9.4921875 C11.95476562 9.24855469 11.95476562 9.24855469 11 9 C11 8.34 11 7.68 11 7 C10.2575 6.9175 9.515 6.835 8.75 6.75 C5.44976235 5.84993519 4.23029279 4.53791938 2 2 C1.34 1.34 0.68 0.68 0 0 Z " fill="#512A7D" transform="translate(79,130)"/>
<path d="M0 0 C0.66 0 1.32 0 2 0 C1.58994384 8.19033227 1.0946225 16.04043449 -1 24 C-0.071875 24.2475 0.85625 24.495 1.8125 24.75 C5.16458325 26.06454245 6.1877803 26.97963384 8 30 C0.28070175 27.71929825 0.28070175 27.71929825 -2 25 C-2.84220593 16.71830839 -1.12862076 8.21273142 0 0 Z " fill="#532D7F" transform="translate(203,168)"/>
<path d="M0 0 C0.99 0.33 1.98 0.66 3 1 C4.19445794 6.39718034 3.92044183 11.41124431 3.5625 16.875 C3.51029297 17.75414063 3.45808594 18.63328125 3.40429688 19.5390625 C3.27552439 21.69307499 3.13858537 23.84659659 3 26 C2.34 26 1.68 26 1 26 C0.67 17.42 0.34 8.84 0 0 Z " fill="#724C94" transform="translate(79,89)"/>
<path d="M0 0 C2.92352327 0.9533228 3.86385722 1.74190329 5.875 3.9375 C5.26011719 4.13085938 4.64523437 4.32421875 4.01171875 4.5234375 C3.20347656 4.78382812 2.39523437 5.04421875 1.5625 5.3125 C0.76199219 5.56773438 -0.03851563 5.82296875 -0.86328125 6.0859375 C-3.35224528 6.92581811 -3.35224528 6.92581811 -6.125 8.9375 C-6.785 7.2875 -7.445 5.6375 -8.125 3.9375 C-3.98604513 -0.0797209 -3.98604513 -0.0797209 0 0 Z " fill="#5F3889" transform="translate(263.125,74.0625)"/>
<path d="M0 0 C0.33 0 0.66 0 1 0 C1.33 1.98 1.66 3.96 2 6 C2.66 5.67 3.32 5.34 4 5 C4 7.31 4 9.62 4 12 C6.97 12 9.94 12 13 12 C12.67 12.66 12.34 13.32 12 14 C10.37536158 14.05395478 8.75021459 14.09277195 7.125 14.125 C6.22007812 14.14820312 5.31515625 14.17140625 4.3828125 14.1953125 C2 14 2 14 0 12 C-0.1953125 9.1796875 -0.1953125 9.1796875 -0.125 5.875 C-0.10695312 4.77929688 -0.08890625 3.68359375 -0.0703125 2.5546875 C-0.04710937 1.71164063 -0.02390625 0.86859375 0 0 Z " fill="#4B2873" transform="translate(236,86)"/>
<path d="M0 0 C-3.39358344 0.84268087 -6.79019085 1.67247901 -10.1875 2.5 C-11.14720703 2.73847656 -12.10691406 2.97695312 -13.09570312 3.22265625 C-14.49272461 3.56103516 -14.49272461 3.56103516 -15.91796875 3.90625 C-16.77156982 4.11572266 -17.6251709 4.32519531 -18.50463867 4.54101562 C-21.05946307 5.01093734 -23.40844759 5.08117627 -26 5 C-22.76238654 1.76238654 -18.48320431 1.34413544 -14.125 0.25 C-13.21363281 0.00378906 -12.30226563 -0.24242187 -11.36328125 -0.49609375 C-10.48285156 -0.71910156 -9.60242188 -0.94210938 -8.6953125 -1.171875 C-7.89109863 -1.3790918 -7.08688477 -1.58630859 -6.25830078 -1.79980469 C-3.55701424 -2.03927009 -2.27724556 -1.40348697 0 0 Z " fill="#56456E" transform="translate(304,186)"/>
<path d="M0 0 C5.61 0 11.22 0 17 0 C16.67 0.66 16.34 1.32 16 2 C11.71 2 7.42 2 3 2 C3.55312735 6.02992782 4.1558062 10.02022924 5 14 C4.01 13.67 3.02 13.34 2 13 C-0.13869011 8.27236924 0 5.47062126 0 0 Z " fill="#4F247E" transform="translate(480,67)"/>
<path d="M0 0 C0.99 0 1.98 0 3 0 C3 1.65 3 3.3 3 5 C6.3 4.67 9.6 4.34 13 4 C12.67 4.66 12.34 5.32 12 6 C9.85546875 6.703125 9.85546875 6.703125 7.1875 7.25 C6.31480469 7.44078125 5.44210938 7.6315625 4.54296875 7.828125 C1.68673581 8.021173 0.3956161 7.49656204 -2 6 C-1.34 4.02 -0.68 2.04 0 0 Z " fill="#5B3D80" transform="translate(221,197)"/>
<path d="M0 0 C-0.33 1.32 -0.66 2.64 -1 4 C-7.435 4.495 -7.435 4.495 -14 5 C-14 4.34 -14 3.68 -14 3 C-8.99067246 -0.00559652 -5.67276511 -0.29341888 0 0 Z " fill="#4E227E" transform="translate(262,66)"/>
<path d="M0 0 C6.27 0 12.54 0 19 0 C19 0.66 19 1.32 19 2 C13.39 2 7.78 2 2 2 C1.67 3.32 1.34 4.64 1 6 C0.67 4.02 0.34 2.04 0 0 Z " fill="#745691" transform="translate(478,65)"/>
<path d="M0 0 C1.2065625 0.9590625 1.2065625 0.9590625 2.4375 1.9375 C7.19998095 5.12001097 12.50814517 5.35597926 18.0625 4.5625 C18.701875 4.376875 19.34125 4.19125 20 4 C19.34 5.32 18.68 6.64 18 8 C16.06215735 7.85879286 14.12473045 7.71187127 12.1875 7.5625 C11.10855469 7.48128906 10.02960938 7.40007812 8.91796875 7.31640625 C5.4939204 6.9451239 3.61446737 6.70549958 1.3125 4.0625 C0 2 0 2 0 0 Z " fill="#583181" transform="translate(54,183)"/>
<path d="M0 0 C3.3 0 6.6 0 10 0 C10 0.66 10 1.32 10 2 C8.02 2.33 6.04 2.66 4 3 C4 6.63 4 10.26 4 14 C3.67 14 3.34 14 3 14 C2.67 10.37 2.34 6.74 2 3 C1.34 3 0.68 3 0 3 C0 2.01 0 1.02 0 0 Z " fill="#5D3985" transform="translate(226,106)"/>
<path d="M0 0 C0 0.66 0 1.32 0 2 C-2.24847481 2.36372387 -4.49886188 2.71564096 -6.75 3.0625 C-8.62945312 3.35833984 -8.62945312 3.35833984 -10.546875 3.66015625 C-13.50016589 3.95080818 -15.2602414 3.98935727 -18 3 C-13.80037019 -1.19962981 -5.654559 -0.10097427 0 0 Z " fill="#654E80" transform="translate(272,103)"/>
<path d="M0 0 C1.32 0.33 2.64 0.66 4 1 C4 3 4 3 2.5 4.625 C2.005 5.07875 1.51 5.5325 1 6 C1.99 6 2.98 6 4 6 C3.34 7.32 2.68 8.64 2 10 C1.34 10 0.68 10 0 10 C0 8.68 0 7.36 0 6 C-3.63 6.33 -7.26 6.66 -11 7 C-11 6.34 -11 5.68 -11 5 C-7.37 5 -3.74 5 0 5 C0 3.35 0 1.7 0 0 Z " fill="#4C2672" transform="translate(283,98)"/>
<path d="M0 0 C0.89130413 2.6739124 1.47731534 5.23723823 2 8 C1.01 8.495 1.01 8.495 0 9 C0.33 9.66 0.66 10.32 1 11 C-2.875 10.125 -2.875 10.125 -4 9 C-4.04063832 7.33382885 -4.042721 5.66611905 -4 4 C-3.01 3.67 -2.02 3.34 -1 3 C-0.67 2.01 -0.34 1.02 0 0 Z " fill="#5A2E8B" transform="translate(251,109)"/>
<path d="M0 0 C1.8125 1.5 1.8125 1.5 3 3 C2.67 3.66 2.34 4.32 2 5 C1.01 5.33 0.02 5.66 -1 6 C-1.33 6.99 -1.66 7.98 -2 9 C-2.2475 8.236875 -2.495 7.47375 -2.75 6.6875 C-4.10995558 3.7635955 -5.31585826 2.69995644 -8 1 C-4.99825776 -0.00058075 -3.12414314 -0.31241431 0 0 Z " fill="#5E388A" transform="translate(284,77)"/>
<path d="M0 0 C1.13087014 3.39261042 0.86514295 4.16517757 -0.21484375 7.44921875 C-0.62573242 8.72055664 -0.62573242 8.72055664 -1.04492188 10.01757812 C-1.48674805 11.33918945 -1.48674805 11.33918945 -1.9375 12.6875 C-2.22818359 13.58017578 -2.51886719 14.47285156 -2.81835938 15.39257812 C-3.53769987 17.59776948 -4.26516672 19.79993258 -5 22 C-7.04003906 18.25537109 -7.04003906 18.25537109 -6.6796875 15.95703125 C-6.41414062 15.24933594 -6.14859375 14.54164063 -5.875 13.8125 C-5.44380859 12.64847656 -5.44380859 12.64847656 -5.00390625 11.4609375 C-3.42780557 7.5973444 -1.7615976 3.78251668 0 0 Z " fill="#522B7B" transform="translate(532,122)"/>
<path d="M0 0 C3.96 0 7.92 0 12 0 C12 0.66 12 1.32 12 2 C4.62702703 4.51351351 4.62702703 4.51351351 2 5 C1.67 4.67 1.34 4.34 1 4 C-0.32594105 3.63837971 -1.65938457 3.30271961 -3 3 C-2.01 2.34 -1.02 1.68 0 1 C0 0.67 0 0.34 0 0 Z " fill="#4E1E82" transform="translate(61,66)"/>
<path d="M0 0 C4.49315071 6.73972606 6.48806105 12.93696151 7 21 C4.38544636 17.87602043 3.08255793 14.92133501 1.8125 11.0625 C1.29623047 9.53302734 1.29623047 9.53302734 0.76953125 7.97265625 C0.04186931 5.16173879 -0.15405496 2.88454639 0 0 Z " fill="#52297C" transform="translate(497,120)"/>
<path d="M0 0 C6.27 0 12.54 0 19 0 C18.34 2.97 17.68 5.94 17 9 C16.67 9 16.34 9 16 9 C16 6.69 16 4.38 16 2 C10.72 1.67 5.44 1.34 0 1 C0 0.67 0 0.34 0 0 Z " fill="#7B6096" transform="translate(533,65)"/>
<path d="M0 0 C0.99 0 1.98 0 3 0 C3 2.64 3 5.28 3 8 C2.34 8 1.68 8 1 8 C1 9.65 1 11.3 1 13 C0.67 13 0.34 13 0 13 C0 11.35 0 9.7 0 8 C-0.99 8 -1.98 8 -3 8 C-2.67 7.01 -2.34 6.02 -2 5 C-1.34 5 -0.68 5 0 5 C0 3.35 0 1.7 0 0 Z " fill="#865FAD" transform="translate(287,96)"/>
<path d="M0 0 C5.03303769 2.37671224 6.75008486 5.06749372 9 10 C8.6015625 12.22265625 8.6015625 12.22265625 8 14 C7.67386719 13.46890625 7.34773437 12.9378125 7.01171875 12.390625 C4.2426685 7.91082989 4.2426685 7.91082989 1.1875 3.625 C0 2 0 2 0 0 Z " fill="#5A3582" transform="translate(172,74)"/>
<path d="M0 0 C2.94478919 2.94478919 3.61531754 4.0657089 4.75 7.875 C5.01296875 8.71804687 5.2759375 9.56109375 5.546875 10.4296875 C6.04649597 13.26374438 5.73261577 15.23784056 5 18 C4.67 18 4.34 18 4 18 C2.68 12.06 1.36 6.12 0 0 Z " fill="#643F86" transform="translate(93,139)"/>
<path d="M0 0 C2.64 0.99 5.28 1.98 8 3 C8 3.99 8 4.98 8 6 C6.1875 6.6875 6.1875 6.6875 4 7 C1.03460313 4.91323924 0.92341871 3.69367485 0 0 Z " fill="#542684" transform="translate(218,103)"/>
<path d="M0 0 C0.33 0 0.66 0 1 0 C1 2.64 1 5.28 1 8 C1.928125 8.2475 2.85625 8.495 3.8125 8.75 C7.16458325 10.06454245 8.1877803 10.97963384 10 14 C2.28070175 11.71929825 2.28070175 11.71929825 0 9 C-0.33403659 5.97211997 -0.2289126 3.03309189 0 0 Z " fill="#5C3A80" transform="translate(201,184)"/>
<path d="M0 0 C0 0.33 0 0.66 0 1 C-1.65 1.33 -3.3 1.66 -5 2 C-5 2.99 -5 3.98 -5 5 C-8.3 4.01 -11.6 3.02 -15 2 C-15 1.67 -15 1.34 -15 1 C-9.92928099 0.28832014 -5.11791642 -0.10662326 0 0 Z " fill="#DBC8E8" transform="translate(231,101)"/>
<path d="M0 0 C1.65 0 3.3 0 5 0 C4.01 2.97 3.02 5.94 2 9 C1.34 9 0.68 9 0 9 C0 6.03 0 3.06 0 0 Z " fill="#502B7C" transform="translate(212,100)"/>
<path d="M0 0 C0.66 0 1.32 0 2 0 C1.38461538 7.50769231 1.38461538 7.50769231 -0.5625 10 C-1.036875 10.33 -1.51125 10.66 -2 11 C-3 9 -3 9 -2.44140625 6.8359375 C-2.15136719 6.02382812 -1.86132812 5.21171875 -1.5625 4.375 C-1.27503906 3.55773437 -0.98757813 2.74046875 -0.69140625 1.8984375 C-0.46324219 1.27195312 -0.23507812 0.64546875 0 0 Z " fill="#5B348A" transform="translate(531,71)"/>
<path d="M0 0 C-3.84899168 2.4056198 -7.54644135 2.71267364 -12 3 C-12.66 2.34 -13.32 1.68 -14 1 C-8.83955235 -0.512545 -5.34001821 -1.33500455 0 0 Z " fill="#67577C" transform="translate(280,191)"/>
<path d="M0 0 C1.98 0 3.96 0 6 0 C6.33 0.99 6.66 1.98 7 3 C8.65 3.33 10.3 3.66 12 4 C10.265625 5.1171875 10.265625 5.1171875 8 6 C5.859375 5.3203125 5.859375 5.3203125 3.75 4.125 C3.04359375 3.73570312 2.3371875 3.34640625 1.609375 2.9453125 C1.07828125 2.63335937 0.5471875 2.32140625 0 2 C0 1.34 0 0.68 0 0 Z " fill="#633C8C" transform="translate(48,137)"/>
<path d="M0 0 C2.61800432 1.30900216 2.96751632 2.27716694 4 5 C4.1953125 8.015625 4.1953125 8.015625 4.125 11.25 C4.10695312 12.32765625 4.08890625 13.4053125 4.0703125 14.515625 C4.04710937 15.33546875 4.02390625 16.1553125 4 17 C3.67 17 3.34 17 3 17 C2.49453964 14.91798472 1.99583165 12.83432933 1.5 10.75 C1.2215625 9.58984375 0.943125 8.4296875 0.65625 7.234375 C0 4 0 4 0 0 Z " fill="#572D81" transform="translate(251,101)"/>
<path d="M0 0 C0.33 0 0.66 0 1 0 C1.02684679 2.64590014 1.04676357 5.29153096 1.0625 7.9375 C1.07087891 8.69224609 1.07925781 9.44699219 1.08789062 10.22460938 C1.09652441 12.14994313 1.05224333 14.07535581 1 16 C0 17 0 17 -2.5625 17.0625 C-3.366875 17.041875 -4.17125 17.02125 -5 17 C-4.35546875 16.65324219 -3.7109375 16.30648437 -3.046875 15.94921875 C-0.07528032 13.11939863 -0.39764736 10.8358907 -0.25 6.8125 C-0.19328125 5.54019531 -0.1365625 4.26789063 -0.078125 2.95703125 C-0.05234375 1.98121094 -0.0265625 1.00539062 0 0 Z " fill="#4C3767" transform="translate(307,168)"/>
<path d="M0 0 C1.5625 1.75 1.5625 1.75 3 4 C2.72117131 7.06711564 1.75752863 8.36370706 0 11 C-1.26026798 8.47946405 -0.91874445 7.1457902 -0.5625 4.375 C-0.46066406 3.55773437 -0.35882813 2.74046875 -0.25390625 1.8984375 C-0.17011719 1.27195312 -0.08632812 0.64546875 0 0 Z " fill="#62388A" transform="translate(237,77)"/>
<path d="M0 0 C0.66 0.33 1.32 0.66 2 1 C1.67 2.65 1.34 4.3 1 6 C0.34 6 -0.32 6 -1 6 C-1 8.31 -1 10.62 -1 13 C-1.33 13 -1.66 13 -2 13 C-2 9.37 -2 5.74 -2 2 C-1.34 2 -0.68 2 0 2 C0 1.34 0 0.68 0 0 Z " fill="#4B227C" transform="translate(285,81)"/>
<path d="M0 0 C4.55737263 0.43820891 7.57653445 0.85041169 11 4 C8.36 4.33 5.72 4.66 3 5 C3 4.01 3 3.02 3 2 C2.01 1.34 1.02 0.68 0 0 Z " fill="#4C257B" transform="translate(272,73)"/>
<path d="M0 0 C0.66 0.33 1.32 0.66 2 1 C1.01 2.32 0.02 3.64 -1 5 C-0.01 6.485 -0.01 6.485 1 8 C0.34 9.32 -0.32 10.64 -1 12 C-1 10.68 -1 9.36 -1 8 C-1.99 7.67 -2.98 7.34 -4 7 C-2.79618552 4.50638429 -1.54571278 2.31856917 0 0 Z " fill="#63408A" transform="translate(242,70)"/>
<path d="M0 0 C2.97 0 5.94 0 9 0 C9 0.66 9 1.32 9 2 C9.99 2 10.98 2 12 2 C12 2.66 12 3.32 12 4 C10.5608866 3.71640113 9.12374482 3.42278601 7.6875 3.125 C6.88699219 2.96257812 6.08648437 2.80015625 5.26171875 2.6328125 C3 2 3 2 0 0 Z " fill="#66438C" transform="translate(59,143)"/>
<path d="M0 0 C4.455 0.99 4.455 0.99 9 2 C9.33 3.32 9.66 4.64 10 6 C5.56909529 4.79157144 3.01887244 3.48331435 0 0 Z " fill="#724E92" transform="translate(44,197)"/>
<path d="M0 0 C0.66 1.32 1.32 2.64 2 4 C1.34 4.66 0.68 5.32 0 6 C-1.32 6 -2.64 6 -4 6 C-4 7.65 -4 9.3 -4 11 C-4.33 11 -4.66 11 -5 11 C-5.33 9.02 -5.66 7.04 -6 5 C-5.34 4.67 -4.68 4.34 -4 4 C-3.34 4.33 -2.68 4.66 -2 5 C-2 4.34 -2 3.68 -2 3 C-1.34 3 -0.68 3 0 3 C0 2.01 0 1.02 0 0 Z " fill="#623A89" transform="translate(254,94)"/>
<path d="M0 0 C0.33 0 0.66 0 1 0 C1.144375 0.7425 1.28875 1.485 1.4375 2.25 C1.623125 3.1575 1.80875 4.065 2 5 C2.144375 5.7425 2.28875 6.485 2.4375 7.25 C2.623125 7.8275 2.80875 8.405 3 9 C3.66 9.33 4.32 9.66 5 10 C3.02 10 1.04 10 -1 10 C-0.67 6.7 -0.34 3.4 0 0 Z " fill="#715491" transform="translate(235,91)"/>
<path d="M0 0 C0.33 0.99 0.66 1.98 1 3 C-0.9375 6.1875 -0.9375 6.1875 -3 9 C-3.33 8.01 -3.66 7.02 -4 6 C-3.34 6 -2.68 6 -2 6 C-2 4.35 -2 2.7 -2 1 C-1.34 0.67 -0.68 0.34 0 0 Z " fill="#4D237A" transform="translate(179,139)"/>
<path d="M0 0 C3.3 0 6.6 0 10 0 C10 0.66 10 1.32 10 2 C7.25 2.6875 7.25 2.6875 4 3 C2.68 2.01 1.36 1.02 0 0 Z " fill="#7C6399" transform="translate(226,106)"/>
<path d="M0 0 C-0.3125 1.9375 -0.3125 1.9375 -1 4 C-1.99 4.33 -2.98 4.66 -4 5 C-4.66 4.34 -5.32 3.68 -6 3 C-2.25 0 -2.25 0 0 0 Z " fill="#5A2F87" transform="translate(50,70)"/>
<path d="M0 0 C2 3 2 3 1.7578125 5.04296875 C1.171875 7.02864583 0.5859375 9.01432292 0 11 C-1.125 9.4375 -1.125 9.4375 -2 7 C-1.125 3.25 -1.125 3.25 0 0 Z " fill="#5E3485" transform="translate(527,133)"/>
<path d="M0 0 C0.99 0.33 1.98 0.66 3 1 C2.67 2.32 2.34 3.64 2 5 C1.01 5 0.02 5 -1 5 C-0.67 3.35 -0.34 1.7 0 0 Z " fill="#551F8E" transform="translate(284,109)"/>
<path d="M0 0 C5.875 4.625 5.875 4.625 7 8 C6.34 8 5.68 8 5 8 C5 7.34 5 6.68 5 6 C4.360625 5.7525 3.72125 5.505 3.0625 5.25 C1 4 1 4 0.25 1.875 C0.1675 1.25625 0.085 0.6375 0 0 Z " fill="#5D3781" transform="translate(89,74)"/>
<path d="M0 0 C0.53625 0.226875 1.0725 0.45375 1.625 0.6875 C-3.79038462 3.76442308 -3.79038462 3.76442308 -6.75 3.375 C-7.554375 3.0346875 -7.554375 3.0346875 -8.375 2.6875 C-2.95961538 -0.38942308 -2.95961538 -0.38942308 0 0 Z " fill="#68458E" transform="translate(252.375,66.3125)"/>
<path d="M0 0 C6.75 0.75 6.75 0.75 9 3 C6.36 3 3.72 3 1 3 C0.67 2.01 0.34 1.02 0 0 Z " fill="#552C7B" transform="translate(74,67)"/>
</svg>
